<svg xmlns="http://www.w3.org/2000/svg" width="50" height="24" viewBox="0 0 50 24" fill="none">
<path d="M11.7013 3.16702C11.7659 2.94082 11.572 2.70654 11.2731 2.66614C10.6834 2.57728 10.0936 2.51265 9.50387 2.47226C9.20496 2.4561 8.89797 2.62575 8.81718 2.85195C8.66369 3.2882 8.51827 3.73253 8.36478 4.16878C8.28399 4.39498 8.47788 4.58887 8.79294 4.61311C9.40692 4.66158 10.029 4.73429 10.643 4.83123C10.958 4.8797 11.265 4.74236 11.3296 4.50808C11.4508 4.05568 11.572 3.61135 11.7013 3.16702Z" fill="#D1D3D4"/>
<path d="M14.957 3.99911C15.0055 3.76483 14.8035 3.49823 14.5046 3.40129C13.9229 3.22356 13.3412 3.07006 12.7596 2.93273C12.4607 2.8681 12.1698 3.00543 12.1052 3.23164C11.984 3.67596 11.8628 4.12837 11.7417 4.58077C11.677 4.80698 11.879 5.04934 12.1941 5.11396C12.808 5.2513 13.4139 5.41287 14.0279 5.59868C14.3349 5.69563 14.6258 5.59061 14.6742 5.35632C14.7712 4.912 14.8681 4.45151 14.957 3.99911Z" fill="#D1D3D4"/>
<path d="M18.1722 5.32416C18.2045 5.08987 17.9945 4.77481 17.7036 4.64555C17.13 4.37895 16.5564 4.13659 15.9829 3.91039C15.692 3.79728 15.4093 3.90231 15.3689 4.13659C15.28 4.589 15.1911 5.04948 15.1023 5.50189C15.0538 5.73617 15.2719 6.01084 15.5789 6.12395C16.1848 6.35015 16.7907 6.60059 17.3886 6.86719C17.6956 7.00452 17.9702 6.93182 17.9945 6.69753C18.051 6.24513 18.1156 5.78464 18.1722 5.32416Z" fill="#D1D3D4"/>
<path d="M21.3309 7.14992C21.347 6.91563 21.1289 6.56017 20.8462 6.38244C20.2887 6.02698 19.7232 5.68767 19.1577 5.38068C18.8669 5.21911 18.6084 5.29182 18.5842 5.53418C18.5276 5.99466 18.4711 6.45515 18.4145 6.91563C18.3822 7.14992 18.6084 7.46498 18.9154 7.62656C19.5132 7.94163 20.1029 8.27285 20.6846 8.6364C20.9835 8.82221 21.2339 8.78181 21.2501 8.54753C21.2662 8.07089 21.2986 7.6104 21.3309 7.14992Z" fill="#D1D3D4"/>
<path d="M11.0064 5.65532C11.071 5.42912 10.869 5.19484 10.554 5.14636C9.93192 5.04942 9.31795 4.97671 8.69591 4.92824C8.38084 4.904 8.0577 5.07366 7.98499 5.29986C7.8315 5.7361 7.68609 6.18043 7.5326 6.61667C7.45181 6.84288 7.66185 7.03676 7.98499 7.06908C8.63128 7.12563 9.27756 7.20642 9.92384 7.31144C10.2551 7.36799 10.5701 7.23065 10.6348 6.99637C10.7559 6.55205 10.8771 6.10772 11.0064 5.65532Z" fill="#D1D3D4"/>
<path d="M10.3117 8.15144C10.3763 7.92523 10.1582 7.68287 9.82699 7.6344C9.18069 7.52938 8.52632 7.44859 7.88002 7.38396C7.54879 7.35165 7.21756 7.5213 7.13677 7.7475C6.98327 8.18375 6.83786 8.62808 6.68436 9.06433C6.60357 9.29054 6.8217 9.49251 7.16909 9.52482C7.8477 9.58945 8.51824 9.67832 9.19685 9.7995C9.54424 9.85605 9.87547 9.72679 9.9401 9.49251C10.0613 9.04818 10.1825 8.59577 10.3117 8.15144Z" fill="#D1D3D4"/>
<path d="M13.9228 9.07244C13.9713 8.83816 13.7451 8.56348 13.4138 8.46654C12.7675 8.27265 12.1212 8.103 11.4749 7.95758C11.1437 7.88488 10.8286 8.01413 10.764 8.24842C10.6428 8.70082 10.5216 9.14515 10.4004 9.59755C10.3358 9.82376 10.5701 10.0742 10.9094 10.1469C11.588 10.3004 12.2586 10.4781 12.9291 10.6801C13.2765 10.7851 13.5916 10.6801 13.6401 10.4458C13.737 9.98533 13.8259 9.52485 13.9228 9.07244Z" fill="#D1D3D4"/>
<path d="M17.4935 10.4622C17.5258 10.2279 17.2916 9.91288 16.9603 9.77554C16.3221 9.50087 15.6839 9.24235 15.0457 9.00807C14.7226 8.88689 14.4156 8.99191 14.3671 9.22619C14.2783 9.6786 14.1894 10.1391 14.1005 10.5915C14.0521 10.8258 14.2944 11.1085 14.6337 11.2297C15.3042 11.464 15.9748 11.7225 16.6372 12.0052C16.9765 12.1507 17.2754 12.078 17.3077 11.8437C17.3723 11.3832 17.4289 10.9227 17.4935 10.4622Z" fill="#D1D3D4"/>
<path d="M9.61696 10.6478C9.68159 10.4216 9.44731 10.1792 9.108 10.1146C8.42939 10.0015 7.75078 9.90456 7.0641 9.83993C6.71671 9.80762 6.37741 9.96919 6.29662 10.1954C6.14313 10.6316 5.99771 11.076 5.84422 11.5122C5.76343 11.7384 5.99771 11.9404 6.35317 11.9808C7.05602 12.0535 7.76694 12.1585 8.46979 12.2797C8.83333 12.3443 9.17263 12.2151 9.23726 11.9889C9.36652 11.5365 9.4877 11.0921 9.61696 10.6478Z" fill="#D1D3D4"/>
<path d="M8.91399 13.1363C8.97862 12.9101 8.73626 12.6596 8.37273 12.595C7.66182 12.4738 6.95091 12.3688 6.23999 12.288C5.87646 12.2476 5.521 12.4092 5.44829 12.6354C5.2948 13.0717 5.14939 13.516 4.9959 13.9522C4.91511 14.1784 5.15746 14.3885 5.52908 14.4288C6.26423 14.5177 6.99938 14.6227 7.73453 14.7601C8.11422 14.8247 8.46967 14.7035 8.5343 14.4692C8.67164 14.033 8.79282 13.5887 8.91399 13.1363Z" fill="#D1D3D4"/>
<path d="M30.6213 5.52618C30.589 5.2919 30.3305 5.21919 30.0477 5.37269C29.4822 5.67968 28.9167 6.01898 28.3592 6.37444C28.0765 6.56025 27.8583 6.90763 27.8745 7.14191C27.9068 7.6024 27.931 8.07096 27.9634 8.53145C27.9795 8.76573 28.23 8.80612 28.5289 8.62031C29.1186 8.25677 29.7084 7.92555 30.2981 7.61048C30.6051 7.4489 30.8233 7.13384 30.799 6.89955C30.7344 6.44715 30.6778 5.98666 30.6213 5.52618Z" fill="#D1D3D4"/>
<path d="M33.8285 4.13665C33.78 3.90237 33.5053 3.79734 33.2145 3.91045C32.6409 4.12857 32.0592 4.37093 31.4937 4.64561C31.2029 4.78295 30.9928 5.08994 31.0251 5.32422C31.0898 5.78471 31.1463 6.24519 31.2109 6.70568C31.2433 6.93996 31.5179 7.01267 31.8168 6.87533C32.4147 6.60066 33.0206 6.35829 33.6265 6.13209C33.9335 6.01899 34.1516 5.74431 34.1031 5.51003C34.0062 5.04954 33.9173 4.59714 33.8285 4.13665Z" fill="#D1D3D4"/>
<path d="M37.0841 3.23978C37.0195 3.01357 36.7286 2.86816 36.4297 2.94087C35.848 3.07012 35.2583 3.22362 34.6847 3.40943C34.3858 3.49829 34.1919 3.77297 34.2323 4.00725C34.3292 4.45965 34.4181 4.92014 34.5151 5.37254C34.5635 5.60682 34.8544 5.71185 35.1614 5.6149C35.7673 5.42909 36.3812 5.26752 36.9952 5.13018C37.3103 5.05747 37.5123 4.82319 37.4476 4.59699C37.3265 4.13651 37.2053 3.69218 37.0841 3.23978Z" fill="#D1D3D4"/>
<path d="M30.9363 8.09522C30.904 7.86093 30.6374 7.78822 30.3304 7.9498C29.7326 8.26487 29.1348 8.59609 28.545 8.95963C28.2461 9.14544 28.0119 9.49283 28.028 9.72711C28.0603 10.1876 28.0846 10.6562 28.1169 11.1166C28.133 11.3509 28.3996 11.3913 28.7147 11.2055C29.3287 10.842 29.9507 10.5027 30.5809 10.1876C30.904 10.026 31.1383 9.71095 31.106 9.47667C31.0494 9.01619 30.9929 8.5557 30.9363 8.09522Z" fill="#D1D3D4"/>
<path d="M41.2124 5.29992C41.1316 5.07372 40.8165 4.90407 40.5014 4.9283C39.8794 4.97677 39.2573 5.04948 38.6433 5.14643C38.3283 5.1949 38.1263 5.42918 38.1909 5.65538C38.3121 6.09971 38.4414 6.55212 38.5626 6.99645C38.6272 7.22265 38.9422 7.35999 39.2735 7.31152C39.9198 7.20649 40.5661 7.12571 41.2124 7.06916C41.5436 7.03684 41.7455 6.84295 41.6648 6.61675C41.5193 6.17242 41.3658 5.73617 41.2124 5.29992Z" fill="#D1D3D4"/>
<path d="M31.2594 10.6642C31.2271 10.43 30.9443 10.3573 30.6212 10.5188C29.9911 10.8339 29.3609 11.1732 28.7469 11.5367C28.4319 11.7225 28.1895 12.0699 28.2057 12.3123C28.238 12.7728 28.2622 13.2413 28.2945 13.7018C28.3107 13.9361 28.5854 13.9765 28.9166 13.7907C29.5629 13.4271 30.2173 13.0878 30.8797 12.7647C31.219 12.6031 31.4614 12.2881 31.4371 12.0457C31.3725 11.5852 31.316 11.1247 31.2594 10.6642Z" fill="#D1D3D4"/>
<path d="M42.0607 7.74775C41.9799 7.52155 41.6487 7.35998 41.3175 7.38421C40.6712 7.44076 40.0168 7.52155 39.3705 7.63465C39.0393 7.6912 38.8212 7.92548 38.8858 8.15976C39.007 8.60409 39.1362 9.0565 39.2574 9.50082C39.322 9.72703 39.6533 9.86436 40.0007 9.80781C40.6793 9.69471 41.3498 9.60585 42.0284 9.53314C42.3758 9.50082 42.5858 9.29886 42.5131 9.07265C42.3596 8.62833 42.2061 8.184 42.0607 7.74775Z" fill="#D1D3D4"/>
<path d="M31.5744 13.2333C31.5421 12.999 31.2432 12.9343 30.912 13.0959C30.2496 13.4191 29.5952 13.7584 28.9408 14.1219C28.6096 14.3077 28.3511 14.6551 28.3672 14.8974C28.3995 15.3579 28.4238 15.8265 28.4561 16.287C28.4723 16.5212 28.7631 16.5616 29.1105 16.3758C29.7891 16.0123 30.4758 15.6649 31.1624 15.3418C31.5179 15.1802 31.7764 14.8571 31.7441 14.6228C31.6875 14.1542 31.631 13.6937 31.5744 13.2333Z" fill="#D1D3D4"/>
<path d="M42.9009 10.1955C42.8201 9.96925 42.4808 9.80768 42.1334 9.83999C41.4548 9.90462 40.7761 10.0016 40.0894 10.1147C39.7421 10.1712 39.5158 10.4136 39.5805 10.6479C39.7017 11.0922 39.8309 11.5446 39.9521 11.9889C40.0167 12.2151 40.356 12.3444 40.7196 12.2798C41.4305 12.1586 42.1334 12.0536 42.8363 11.9808C43.1998 11.9405 43.426 11.7385 43.3452 11.5123C43.1998 11.076 43.0463 10.6317 42.9009 10.1955Z" fill="#D1D3D4"/>
<path d="M31.8897 15.8023C31.8574 15.568 31.5504 15.5034 31.1949 15.6649C30.5002 15.9881 29.8135 16.3355 29.1268 16.699C28.7795 16.8848 28.5129 17.2403 28.529 17.4745C28.5613 17.935 28.5856 18.4036 28.6179 18.8641C28.634 19.0983 28.9329 19.1387 29.2965 18.9449C30.0074 18.5732 30.7183 18.2259 31.4454 17.9027C31.817 17.7331 32.0916 17.418 32.0593 17.1756C32.0109 16.7232 31.9543 16.2628 31.8897 15.8023Z" fill="#D1D3D4"/>
<path d="M35.8158 14.2995C35.7673 14.0652 35.4361 13.9683 35.0807 14.0976C34.3778 14.3399 33.6669 14.6065 32.9721 14.8973C32.6167 15.0428 32.3501 15.3578 32.3824 15.5921C32.447 16.0526 32.5036 16.5131 32.5682 16.9735C32.6005 17.2078 32.9237 17.2725 33.2953 17.127C34.0224 16.8362 34.7575 16.5696 35.4927 16.3192C35.8643 16.1899 36.1389 15.9072 36.0905 15.6729C35.9935 15.2124 35.9047 14.76 35.8158 14.2995Z" fill="#D1D3D4"/>
<path d="M39.7825 13.2412C39.7178 13.015 39.3785 12.8857 39.015 12.9665C38.304 13.1281 37.5931 13.3139 36.8822 13.5239C36.5186 13.629 36.2682 13.9117 36.3167 14.146C36.4136 14.5984 36.5025 15.0589 36.5994 15.5113C36.6479 15.7456 36.9872 15.8425 37.3669 15.7294C38.1021 15.5194 38.8453 15.3255 39.5805 15.1558C39.9602 15.067 40.2106 14.8165 40.146 14.5903C40.0167 14.1379 39.8956 13.6855 39.7825 13.2412Z" fill="#D1D3D4"/>
<path d="M8.80084 1.71294C8.72005 1.93914 8.41306 2.11687 8.11414 2.11687C7.5244 2.12495 6.93465 2.16534 6.3449 2.22997C6.04599 2.26229 5.87634 2.11687 5.9652 1.89875C6.14293 1.47058 6.32067 1.04241 6.4984 0.614243C6.58726 0.396119 6.90233 0.177996 7.18509 0.137602C7.7506 0.0648945 8.32419 0.0164222 8.88971 0.000264863C9.18054 -0.00781379 9.3502 0.169917 9.26941 0.396119C9.10783 0.832367 8.95433 1.26861 8.80084 1.71294Z" fill="#27AAE1"/>
<path d="M12.3959 0.670773C12.4605 0.44457 12.2828 0.218368 12 0.177975C11.4426 0.097188 10.8852 0.0406374 10.3197 0.0164015C10.0369 0.00024415 9.73798 0.177974 9.6572 0.404177C9.5037 0.840424 9.35828 1.28475 9.20479 1.721C9.124 1.9472 9.30981 2.13301 9.60872 2.15725C10.1985 2.19764 10.7801 2.25419 11.3699 2.34305C11.6688 2.39153 11.9596 2.24611 12.0243 2.01183C12.1454 1.5675 12.2666 1.1151 12.3959 0.670773Z" fill="#27AAE1"/>
<path d="M15.4738 1.46252C15.5223 1.22823 15.3365 0.961639 15.0537 0.872773C14.5044 0.703122 13.9551 0.549627 13.3976 0.428447C13.1149 0.363818 12.8402 0.509233 12.7756 0.735436C12.6544 1.17976 12.5332 1.63217 12.412 2.08457C12.3474 2.31077 12.5413 2.54506 12.8402 2.61776C13.4219 2.74702 14.0035 2.90052 14.5771 3.07825C14.8679 3.16711 15.1507 3.06209 15.1992 2.82781C15.288 2.3754 15.385 1.91492 15.4738 1.46252Z" fill="#27AAE1"/>
<path d="M18.5115 2.76302C18.5438 2.52874 18.3418 2.22175 18.0671 2.08442C17.5259 1.81782 16.9846 1.58354 16.4433 1.36541C16.1686 1.25231 15.902 1.36541 15.8536 1.5997C15.7647 2.0521 15.6758 2.51259 15.587 2.96499C15.5385 3.19927 15.7405 3.47395 16.0313 3.58705C16.6049 3.80517 17.1785 4.04753 17.744 4.31413C18.0348 4.45147 18.2933 4.37876 18.3257 4.1364C18.3903 3.68399 18.4549 3.22351 18.5115 2.76302Z" fill="#27AAE1"/>
<path d="M21.5005 4.56478C21.5167 4.3305 21.3066 3.98311 21.04 3.7973C20.5068 3.44184 19.9737 3.11062 19.4405 2.80362C19.1658 2.65013 18.9234 2.72284 18.8911 2.95712C18.8346 3.41761 18.778 3.87809 18.7215 4.33858C18.6892 4.57286 18.8992 4.88793 19.19 5.04142C19.7555 5.34841 20.313 5.67964 20.8704 6.04318C21.1531 6.22899 21.3955 6.1886 21.4116 5.95432C21.4359 5.49383 21.4682 5.02527 21.5005 4.56478Z" fill="#27AAE1"/>
<path d="M24.3926 6.8915C24.3926 6.65721 24.1826 6.26136 23.924 6.03515C23.4151 5.58275 22.898 5.15458 22.3729 4.75872C22.1063 4.55675 21.8801 4.58907 21.864 4.83143C21.8397 5.29191 21.8074 5.76048 21.7832 6.22096C21.767 6.45525 21.9852 6.81071 22.2679 7.01268C22.8173 7.41661 23.3585 7.8367 23.8917 8.29719C24.1664 8.53147 24.3845 8.53147 24.3845 8.28911C24.3845 7.82055 24.3926 7.36006 24.3926 6.8915Z" fill="#27AAE1"/>
<path d="M8.40494 2.83589C8.48573 2.60969 8.29991 2.42388 8.001 2.43196C7.41124 2.44003 6.81341 2.47235 6.22366 2.53698C5.92474 2.56929 5.60159 2.78742 5.51272 3.00554C5.33499 3.43372 5.15725 3.86189 4.97952 4.29006C4.89065 4.50818 5.06839 4.6536 5.38346 4.62937C5.99745 4.57282 6.61952 4.54858 7.23351 4.54858C7.54858 4.54858 7.87174 4.37893 7.94444 4.15272C8.09794 3.71647 8.25144 3.27214 8.40494 2.83589Z" fill="#27AAE1"/>
<path d="M24.3765 9.48464C24.3765 9.25036 24.1584 8.85451 23.8837 8.62831C23.3424 8.1759 22.8011 7.74773 22.2517 7.3438C21.969 7.14184 21.7266 7.17415 21.7185 7.40843C21.6943 7.86891 21.662 8.33748 21.6378 8.79796C21.6216 9.03224 21.8559 9.3877 22.1467 9.58967C22.7203 9.9936 23.2939 10.4218 23.8595 10.8742C24.1503 11.1084 24.3765 11.1085 24.3765 10.8661C24.3765 10.4137 24.3765 9.94513 24.3765 9.48464Z" fill="#27AAE1"/>
<path d="M7.54063 5.2758C7.62142 5.0496 7.42753 4.86379 7.11245 4.85571C6.49039 4.85571 5.86832 4.87995 5.25433 4.92842C4.93925 4.95266 4.60802 5.1627 4.51915 5.3889C4.34142 5.81707 4.16368 6.24524 3.98595 6.6734C3.89708 6.89153 4.0829 7.04502 4.41413 7.02078C5.05235 6.97231 5.69866 6.96423 6.34497 6.97231C6.6762 6.98039 7.00743 6.81074 7.08822 6.58454C7.23364 6.15637 7.38713 5.72013 7.54063 5.2758Z" fill="#27AAE1"/>
<path d="M14.4398 6.53607C14.4882 6.30179 14.2701 6.02711 13.9631 5.93825C13.3492 5.75244 12.7352 5.59087 12.1212 5.45353C11.8062 5.38082 11.4992 5.51816 11.4426 5.75244C11.3215 6.20485 11.2003 6.64917 11.0791 7.10158C11.0145 7.32778 11.2326 7.57014 11.5638 7.64285C12.2101 7.78826 12.8483 7.95792 13.4946 8.15181C13.8258 8.24875 14.1247 8.14373 14.1732 7.90945C14.2539 7.44896 14.3428 6.98848 14.4398 6.53607Z" fill="#27AAE1"/>
<path d="M17.8328 7.89308C17.8651 7.65879 17.6389 7.34373 17.3319 7.20639C16.726 6.93171 16.1201 6.68127 15.5142 6.45507C15.2072 6.34197 14.9163 6.43891 14.8679 6.6732C14.779 7.1256 14.6901 7.58609 14.6013 8.03849C14.5528 8.27277 14.779 8.54745 15.1102 8.66863C15.7484 8.90291 16.3867 9.15335 17.0168 9.42802C17.34 9.56536 17.6227 9.50073 17.655 9.25837C17.7116 8.81404 17.7681 8.35356 17.8328 7.89308Z" fill="#27AAE1"/>
<path d="M21.1613 9.72705C21.1774 9.49277 20.9431 9.13731 20.6442 8.95957C20.0545 8.59603 19.4566 8.26481 18.8588 7.94974C18.5518 7.78816 18.2852 7.86087 18.2529 8.09515C18.1963 8.55564 18.1398 9.01612 18.0832 9.47661C18.0509 9.71089 18.2933 10.026 18.6083 10.1875C19.2385 10.5026 19.8606 10.8419 20.4746 11.2054C20.7896 11.3913 21.0562 11.3509 21.0724 11.1166C21.0966 10.6561 21.1289 10.1956 21.1613 9.72705Z" fill="#27AAE1"/>
<path d="M24.3684 12.0698C24.3684 11.8355 24.1422 11.4396 23.8514 11.2134C23.2859 10.761 22.7123 10.3328 22.1306 9.92892C21.8317 9.72695 21.5813 9.75926 21.5651 9.99355C21.5409 10.454 21.5086 10.9226 21.4843 11.3831C21.4682 11.6174 21.7105 11.9728 22.0175 12.1829C22.6234 12.5868 23.2213 13.015 23.811 13.4674C24.1099 13.7017 24.3523 13.7017 24.3523 13.4593C24.3684 12.9988 24.3684 12.5383 24.3684 12.0698Z" fill="#27AAE1"/>
<path d="M6.68426 7.72339C6.76505 7.49718 6.555 7.30329 6.23185 7.29521C5.58556 7.27906 4.93118 7.29521 4.29297 7.34369C3.96174 7.36792 3.62244 7.56989 3.53358 7.78802C3.35584 8.21619 3.17811 8.64436 3.00038 9.07253C2.91151 9.29066 3.11348 9.45223 3.45279 9.428C4.12332 9.39568 4.79385 9.3876 5.46438 9.41184C5.81176 9.41992 6.15107 9.25834 6.23185 9.03214C6.36919 8.59589 6.53077 8.15964 6.68426 7.72339Z" fill="#27AAE1"/>
<path d="M20.9915 12.3122C21.0076 12.0779 20.7653 11.7225 20.4502 11.5367C19.8281 11.1731 19.2061 10.8338 18.5759 10.5187C18.2528 10.3572 17.97 10.4218 17.9377 10.6642C17.8812 11.1246 17.8246 11.5851 17.7681 12.0456C17.7358 12.2799 17.9862 12.603 18.3255 12.7646C18.9799 13.0878 19.6342 13.4271 20.2886 13.7906C20.6198 13.9764 20.8945 13.9441 20.9107 13.7017C20.9349 13.2412 20.9592 12.7727 20.9915 12.3122Z" fill="#27AAE1"/>
<path d="M24.3603 14.6549C24.3603 14.4206 24.1179 14.0247 23.819 13.7985C23.2293 13.3461 22.6234 12.9179 22.0175 12.514C21.7105 12.312 21.4439 12.3443 21.4278 12.5786C21.4035 13.0391 21.3712 13.5077 21.347 13.9682C21.3308 14.2024 21.5893 14.5579 21.9125 14.768C22.5507 15.1719 23.1727 15.6001 23.7948 16.0606C24.1098 16.2948 24.3603 16.2948 24.3603 16.0525C24.3522 15.5839 24.3603 15.1234 24.3603 14.6549Z" fill="#27AAE1"/>
<path d="M5.81975 10.1631C5.90054 9.93694 5.68241 9.73497 5.33502 9.72689C4.65641 9.70266 3.98587 9.71073 3.31534 9.74305C2.97603 9.75921 2.62056 9.96117 2.5317 10.1793C2.35396 10.6075 2.17623 11.0356 1.9985 11.4638C1.90963 11.6819 2.11968 11.8435 2.47514 11.8354C3.16992 11.8112 3.86469 11.8193 4.56754 11.8516C4.92301 11.8677 5.27847 11.7062 5.35926 11.48C5.51275 11.0356 5.66625 10.5994 5.81975 10.1631Z" fill="#27AAE1"/>
<path d="M13.3975 11.6091C13.446 11.3749 13.2036 11.1002 12.8562 10.9952C12.1776 10.7932 11.499 10.6155 10.8204 10.462C10.473 10.3812 10.1418 10.5104 10.0772 10.7447C9.95598 11.1891 9.8348 11.6415 9.71362 12.0939C9.64899 12.3201 9.89135 12.5705 10.2549 12.6513C10.9658 12.8129 11.6687 12.9987 12.3715 13.2087C12.7351 13.3137 13.0582 13.2168 13.1067 12.9825C13.2117 12.522 13.3087 12.0616 13.3975 11.6091Z" fill="#27AAE1"/>
<path d="M17.1542 13.0232C17.1865 12.7889 16.9361 12.4739 16.5968 12.3285C15.9262 12.0457 15.2557 11.7872 14.5852 11.5448C14.2459 11.4237 13.9227 11.5206 13.8823 11.7549C13.7934 12.2073 13.7046 12.6678 13.6157 13.1202C13.5672 13.3545 13.8258 13.6372 14.1812 13.7584C14.8841 14.0007 15.5869 14.2673 16.2817 14.5501C16.6372 14.6955 16.9522 14.6309 16.9765 14.3885C17.033 13.9442 17.0896 13.4837 17.1542 13.0232Z" fill="#27AAE1"/>
<path d="M20.8219 14.8974C20.8381 14.6631 20.5796 14.3077 20.2484 14.1219C19.594 13.7583 18.9396 13.4109 18.2771 13.0959C17.9378 12.9343 17.6389 12.9989 17.6147 13.2332C17.5581 13.6937 17.5016 14.1542 17.445 14.6147C17.4127 14.8489 17.6793 15.1721 18.0267 15.3337C18.7134 15.6568 19.4001 16.0042 20.0787 16.3677C20.4261 16.5535 20.7169 16.5212 20.7331 16.2789C20.7654 15.8265 20.7977 15.3579 20.8219 14.8974Z" fill="#27AAE1"/>
<path d="M24.3443 17.2481C24.3443 17.0138 24.0938 16.6179 23.7788 16.3917C23.1567 15.9393 22.5266 15.5112 21.8883 15.0991C21.5652 14.8891 21.2824 14.9214 21.2744 15.1638C21.2501 15.6243 21.2178 16.0928 21.1936 16.5533C21.1774 16.7876 21.444 17.143 21.7833 17.3531C22.4458 17.757 23.1002 18.1933 23.7465 18.6457C24.0777 18.8799 24.3362 18.8799 24.3362 18.6376C24.3443 18.1771 24.3443 17.7085 24.3443 17.2481Z" fill="#27AAE1"/>
<path d="M4.96335 12.603C5.04414 12.3768 4.81793 12.1748 4.4544 12.1587C3.75155 12.1264 3.04871 12.1183 2.35394 12.1425C1.99848 12.1506 1.63494 12.3526 1.54608 12.5707C1.36835 12.9988 1.19062 13.427 1.01289 13.8552C0.924024 14.0733 1.14215 14.243 1.51376 14.2349C2.23276 14.2187 2.95984 14.2349 3.68692 14.2753C4.05854 14.2995 4.42208 14.1379 4.50287 13.9117C4.64829 13.4755 4.80178 13.0392 4.96335 12.603Z" fill="#27AAE1"/>
<path d="M12.8806 14.146C12.9291 13.9118 12.6705 13.629 12.3151 13.524C11.6041 13.3139 10.8932 13.1281 10.1823 12.9666C9.81876 12.8858 9.47946 13.0069 9.41483 13.2412C9.29365 13.6856 9.17247 14.138 9.05129 14.5904C8.98666 14.8166 9.24517 15.067 9.62487 15.1559C10.36 15.3255 11.1033 15.5194 11.8384 15.7294C12.2181 15.8345 12.5574 15.7456 12.6059 15.5113C12.6948 15.0508 12.7917 14.5984 12.8806 14.146Z" fill="#27AAE1"/>
<path d="M16.8148 15.592C16.8472 15.3577 16.5806 15.0426 16.2251 14.8972C15.5223 14.6144 14.8194 14.3478 14.1166 14.0974C13.753 13.9762 13.4299 14.0651 13.3814 14.2994C13.2925 14.7518 13.2037 15.2123 13.1148 15.6647C13.0663 15.8989 13.3329 16.1817 13.7126 16.311C14.4478 16.5614 15.183 16.828 15.91 17.1188C16.2817 17.2642 16.6048 17.1996 16.6371 16.9653C16.6937 16.5129 16.7502 16.0524 16.8148 15.592Z" fill="#27AAE1"/>
<path d="M20.6603 17.4826C20.6764 17.2483 20.4098 16.8928 20.0625 16.707C19.3839 16.3354 18.6891 15.9961 17.9944 15.6729C17.6389 15.5114 17.3319 15.576 17.2996 15.8103C17.2431 16.2708 17.1865 16.7312 17.13 17.1917C17.0976 17.426 17.3723 17.7492 17.7439 17.9188C18.4629 18.242 19.1819 18.5893 19.8928 18.961C20.2564 19.1468 20.5553 19.1145 20.5714 18.8802C20.5956 18.4035 20.628 17.9431 20.6603 17.4826Z" fill="#27AAE1"/>
<path d="M24.3362 19.8335C24.3362 19.5992 24.0777 19.2034 23.7465 18.9772C23.1002 18.5248 22.4377 18.0885 21.7752 17.6846C21.4359 17.4746 21.1451 17.5069 21.1289 17.7492C21.1047 18.2097 21.0724 18.6783 21.0481 19.1388C21.032 19.373 21.3147 19.7285 21.6702 19.9386C22.365 20.3425 23.0517 20.7787 23.7222 21.2311C24.0615 21.4654 24.3362 21.4654 24.3362 21.2311C24.3362 20.7626 24.3362 20.3021 24.3362 19.8335Z" fill="#27AAE1"/>
<path d="M4.09899 15.0428C4.17977 14.8166 3.93741 14.6065 3.5658 14.5903C2.83064 14.55 2.10356 14.5338 1.38457 14.5419C1.01295 14.55 0.649411 14.7438 0.552468 14.962C0.374738 15.3901 0.197008 15.8183 0.0192781 16.2465C-0.0695868 16.4646 0.156614 16.6343 0.53631 16.6343C1.27954 16.6343 2.03086 16.6585 2.79025 16.707C3.17802 16.7312 3.55772 16.5777 3.63042 16.3515C3.792 15.9233 3.94549 15.479 4.09899 15.0428Z" fill="#27AAE1"/>
<path d="M8.21911 15.6324C8.28374 15.4062 8.02522 15.1557 7.6536 15.083C6.91037 14.9457 6.17521 14.8407 5.43198 14.7518C5.05228 14.7114 4.68874 14.8649 4.60796 15.0911C4.45446 15.5273 4.30904 15.9717 4.15555 16.4079C4.07476 16.6341 4.33328 16.8442 4.72105 16.8926C5.48852 16.9896 6.24792 17.1108 7.02346 17.2481C7.41932 17.3208 7.78286 17.1996 7.84749 16.9734C7.96867 16.5291 8.09793 16.0767 8.21911 15.6324Z" fill="#27AAE1"/>
<path d="M12.3635 16.6827C12.4119 16.4485 12.1453 16.1657 11.7656 16.0526C11.0224 15.8345 10.2792 15.6487 9.53595 15.4709C9.15626 15.3821 8.8008 15.5032 8.73617 15.7375C8.61499 16.1899 8.49381 16.6343 8.37263 17.0867C8.308 17.3129 8.5746 17.5714 8.97045 17.6603C9.73792 17.838 10.5135 18.04 11.2809 18.2581C11.6768 18.3712 12.0322 18.2823 12.0807 18.048C12.1777 17.5875 12.2665 17.1351 12.3635 16.6827Z" fill="#27AAE1"/>
<path d="M16.4756 18.1612C16.5079 17.9269 16.2332 17.6037 15.8535 17.4583C15.1183 17.1675 14.3832 16.8928 13.648 16.6504C13.2683 16.5212 12.929 16.6181 12.8805 16.8524C12.7917 17.3048 12.7028 17.7653 12.6139 18.2177C12.5655 18.452 12.8482 18.7428 13.236 18.8721C14.0035 19.1306 14.7709 19.4053 15.5303 19.6961C15.9181 19.8496 16.2574 19.785 16.2897 19.5507C16.3463 19.0821 16.4109 18.6216 16.4756 18.1612Z" fill="#27AAE1"/>
<path d="M20.4907 20.0595C20.5068 19.8252 20.2241 19.4698 19.8605 19.284C19.1496 18.9123 18.4306 18.5649 17.7035 18.2418C17.3319 18.0721 17.0087 18.1368 16.9764 18.3711C16.9199 18.8315 16.8633 19.292 16.8068 19.7525C16.7745 19.9868 17.0653 20.31 17.4531 20.4796C18.2044 20.8108 18.9557 21.1582 19.6909 21.5299C20.0706 21.7157 20.3856 21.6834 20.4018 21.4491C20.426 20.9886 20.4583 20.5281 20.4907 20.0595Z" fill="#27AAE1"/>
<path d="M24.3279 22.4267C24.3279 22.1924 24.0532 21.7965 23.7139 21.5703C23.0434 21.1179 22.3487 20.6817 21.6539 20.2777C21.2985 20.0677 20.9996 20.1 20.9834 20.3424C20.9592 20.8029 20.9269 21.2714 20.9026 21.7319C20.8865 21.9662 21.1773 22.3216 21.5489 22.5317C22.2679 22.9437 22.9869 23.3719 23.6816 23.8243C24.0371 24.0586 24.3198 24.0586 24.3198 23.8243C24.3198 23.3557 24.3279 22.8872 24.3279 22.4267Z" fill="#27AAE1"/>
<path d="M27.406 6.21288C27.4221 6.44716 27.204 6.80262 26.9213 7.00459C26.3719 7.40853 25.8306 7.82862 25.2974 8.2891C25.0228 8.52338 24.8047 8.52338 24.8047 8.28102C24.8047 7.82054 24.8046 7.35197 24.7966 6.89149C24.7966 6.65721 25.0066 6.26135 25.2651 6.03515C25.7741 5.58275 26.2911 5.15458 26.8162 4.75872C27.0828 4.55675 27.309 4.58907 27.3252 4.83143C27.3575 5.29191 27.3817 5.7524 27.406 6.21288Z" fill="#27AAE1"/>
<path d="M30.2982 2.95712C30.2659 2.72284 30.0235 2.65013 29.7488 2.80362C29.2157 3.11062 28.6825 3.44184 28.1493 3.7973C27.8827 3.97504 27.6726 4.32242 27.6888 4.56478C27.7211 5.02527 27.7453 5.49383 27.7777 5.95432C27.7938 6.1886 28.0362 6.22899 28.3189 6.04318C28.8763 5.68772 29.4338 5.34841 29.9993 5.04142C30.2901 4.87985 30.5001 4.57286 30.4678 4.33858C30.4194 3.87809 30.3628 3.41761 30.2982 2.95712Z" fill="#27AAE1"/>
<path d="M33.3356 1.59974C33.2872 1.36545 33.0286 1.26043 32.7459 1.36545C32.2046 1.58358 31.6553 1.81786 31.1221 2.08446C30.8474 2.2218 30.6535 2.52879 30.6778 2.76307C30.7424 3.22355 30.7989 3.68404 30.8636 4.14452C30.8959 4.37881 31.1544 4.45151 31.4452 4.32225C32.0107 4.05566 32.5843 3.8133 33.1579 3.59517C33.4487 3.48207 33.6507 3.2074 33.6022 2.97311C33.5134 2.51263 33.4245 2.05214 33.3356 1.59974Z" fill="#27AAE1"/>
<path d="M36.4137 0.743462C36.3491 0.51726 36.0744 0.371844 35.7916 0.436473C35.2423 0.557653 34.6849 0.711148 34.1355 0.880799C33.8528 0.969665 33.667 1.23626 33.7154 1.47054C33.8124 1.92295 33.9013 2.38343 33.9982 2.83583C34.0467 3.07012 34.3213 3.17514 34.6202 3.08627C35.1938 2.90854 35.7755 2.75505 36.3571 2.62579C36.656 2.56116 36.8419 2.32688 36.7853 2.0926C36.648 1.64019 36.5349 1.18779 36.4137 0.743462Z" fill="#27AAE1"/>
<path d="M39.5321 0.404177C39.4513 0.177974 39.1605 0.000244136 38.8697 0.0164015C38.3041 0.0406375 37.7467 0.0971881 37.1893 0.177975C36.9065 0.218368 36.7288 0.444571 36.7934 0.670773C36.9146 1.1151 37.0439 1.56751 37.165 2.01183C37.2297 2.23803 37.5205 2.38345 37.8194 2.34306C38.4011 2.25419 38.9908 2.18956 39.5806 2.15725C39.8795 2.14109 40.0572 1.9472 39.9845 1.721C39.8391 1.27667 39.6856 0.840425 39.5321 0.404177Z" fill="#27AAE1"/>
<path d="M42.699 0.614243C42.6101 0.396119 42.295 0.177996 42.0123 0.137602C41.4468 0.0648945 40.8732 0.0164222 40.3077 0.000264863C40.0169 -0.00781379 39.8472 0.169917 39.928 0.396119C40.0815 0.832367 40.235 1.26861 40.3885 1.71294C40.4693 1.93914 40.7763 2.11687 41.0752 2.11687C41.6649 2.12495 42.2546 2.16534 42.8444 2.22997C43.1433 2.26229 43.3129 2.11687 43.2241 1.89875C43.0544 1.47058 42.8767 1.04241 42.699 0.614243Z" fill="#27AAE1"/>
<path d="M27.4787 7.40828C27.4625 7.174 27.2202 7.13361 26.9455 7.34365C26.3961 7.74759 25.8468 8.17576 25.3136 8.62816C25.0389 8.86244 24.8208 9.25022 24.8208 9.4845C24.8208 9.94498 24.8208 10.4135 24.8289 10.874C24.8289 11.1164 25.0632 11.1083 25.3459 10.8821C25.9114 10.4297 26.4769 10.0015 27.0586 9.5976C27.3494 9.39563 27.5837 9.04017 27.5675 8.80589C27.5271 8.33733 27.5029 7.87685 27.4787 7.40828Z" fill="#27AAE1"/>
<path d="M40.3722 2.85196C40.2914 2.62575 39.9844 2.4561 39.6855 2.47226C39.0957 2.51265 38.506 2.57728 37.9163 2.66614C37.6173 2.71462 37.4235 2.94082 37.4881 3.16702C37.6093 3.61135 37.7385 4.06376 37.8597 4.50809C37.9243 4.73429 38.2313 4.87971 38.5464 4.83124C39.1604 4.73429 39.7743 4.66158 40.3964 4.61311C40.7115 4.58887 40.9054 4.39499 40.8246 4.16878C40.6791 3.72445 40.5257 3.2882 40.3722 2.85196Z" fill="#27AAE1"/>
<path d="M43.6846 3.00553C43.5957 2.78741 43.2726 2.56928 42.9736 2.53697C42.3758 2.47234 41.7861 2.44002 41.1963 2.43195C40.8974 2.42387 40.7116 2.61776 40.7924 2.83588C40.9459 3.27213 41.0994 3.70838 41.2529 4.15271C41.3337 4.37891 41.6487 4.54857 41.9638 4.54857C42.5778 4.54857 43.1999 4.5728 43.8138 4.62935C44.1289 4.65359 44.3067 4.50817 44.2178 4.29005C44.0401 3.86188 43.8623 3.43371 43.6846 3.00553Z" fill="#27AAE1"/>
<path d="M27.6241 9.99373C27.6079 9.75945 27.3575 9.71906 27.0586 9.9291C26.4769 10.333 25.9033 10.7612 25.3378 11.2136C25.047 11.4479 24.8208 11.8357 24.8208 12.0699C24.8208 12.5304 24.8208 12.999 24.8289 13.4595C24.8289 13.7018 25.0712 13.6938 25.3701 13.4676C25.9599 13.0152 26.5577 12.587 27.1636 12.1831C27.4706 11.9811 27.7129 11.6256 27.6968 11.3833C27.6726 10.9228 27.6483 10.4542 27.6241 9.99373Z" fill="#27AAE1"/>
<path d="M34.3295 6.68127C34.281 6.44699 33.9901 6.34197 33.6832 6.46315C33.0773 6.68935 32.4633 6.93979 31.8655 7.21446C31.5585 7.3518 31.3323 7.66687 31.3646 7.90115C31.4292 8.36164 31.4858 8.82212 31.5504 9.28261C31.5827 9.51689 31.8655 9.5896 32.1886 9.45226C32.8187 9.17759 33.457 8.91907 34.0952 8.69286C34.4183 8.57168 34.6445 8.29701 34.6041 8.06273C34.5072 7.59416 34.4183 7.13368 34.3295 6.68127Z" fill="#27AAE1"/>
<path d="M37.7547 5.74403C37.6901 5.51782 37.3831 5.38049 37.0761 5.44512C36.4621 5.58245 35.8482 5.74403 35.2342 5.92984C34.9191 6.02678 34.7091 6.30146 34.7576 6.52766C34.8545 6.98007 34.9434 7.44055 35.0403 7.89296C35.0888 8.12724 35.3877 8.23226 35.7189 8.13532C36.3571 7.94143 37.0034 7.77178 37.6497 7.62636C37.9809 7.55365 38.191 7.31129 38.1344 7.08509C37.9971 6.64076 37.8759 6.18836 37.7547 5.74403Z" fill="#27AAE1"/>
<path d="M44.6782 5.39671C44.5894 5.17859 44.2581 4.96854 43.9431 4.93622C43.321 4.87967 42.6989 4.85544 42.0849 4.86351C41.7699 4.86351 41.576 5.0574 41.6568 5.28361C41.8103 5.71986 41.9638 6.15612 42.1173 6.60045C42.1981 6.82665 42.5293 6.99631 42.8605 6.98823C43.5068 6.98015 44.1531 6.99631 44.7913 7.0367C45.1226 7.06094 45.3084 6.90744 45.2195 6.68931C45.0337 6.25306 44.856 5.82489 44.6782 5.39671Z" fill="#27AAE1"/>
<path d="M27.7695 12.5788C27.7533 12.3445 27.4867 12.3041 27.1797 12.5142C26.5738 12.9181 25.9679 13.3463 25.3782 13.7987C25.0793 14.033 24.8369 14.4208 24.8369 14.655C24.8369 15.1155 24.8369 15.5841 24.845 16.0446C24.845 16.2869 25.0954 16.2788 25.4105 16.0526C26.0245 15.6002 26.6546 15.1721 27.2928 14.7601C27.616 14.55 27.8745 14.2026 27.8583 13.9603C27.826 13.5079 27.7937 13.0393 27.7695 12.5788Z" fill="#27AAE1"/>
<path d="M34.8221 9.21812C34.7737 8.98384 34.4747 8.88689 34.1435 8.99999C33.5053 9.23428 32.859 9.48471 32.2289 9.76747C31.9057 9.90481 31.6715 10.2199 31.6957 10.4542C31.7603 10.9146 31.8169 11.3751 31.8815 11.8356C31.9138 12.0699 32.2127 12.1426 32.552 11.9972C33.2145 11.7144 33.885 11.4559 34.5555 11.2216C34.8948 11.1005 35.1372 10.8177 35.0887 10.5834C34.9999 10.131 34.911 9.6786 34.8221 9.21812Z" fill="#27AAE1"/>
<path d="M38.4334 8.24038C38.3688 8.01418 38.0537 7.87684 37.7225 7.94955C37.0762 8.09497 36.4299 8.26462 35.7836 8.45851C35.4524 8.55545 35.2262 8.83013 35.2747 9.06441C35.3716 9.51681 35.4605 9.9773 35.5574 10.4297C35.6059 10.664 35.921 10.7609 36.2683 10.664C36.9389 10.462 37.6175 10.2843 38.288 10.1308C38.6354 10.05 38.8616 9.80765 38.797 9.58144C38.6758 9.13711 38.5546 8.69279 38.4334 8.24038Z" fill="#27AAE1"/>
<path d="M45.6718 7.78815C45.5829 7.57003 45.2436 7.35998 44.9124 7.34383C44.2661 7.30343 43.6198 7.28728 42.9735 7.29535C42.6423 7.30343 42.4403 7.49732 42.5211 7.72352C42.6746 8.15977 42.8281 8.59602 42.9816 9.04035C43.0624 9.26655 43.4017 9.42812 43.749 9.42005C44.4196 9.39581 45.0901 9.40389 45.7606 9.4362C46.0999 9.45236 46.3019 9.29887 46.213 9.08074C46.0272 8.64449 45.8495 8.21632 45.6718 7.78815Z" fill="#27AAE1"/>
<path d="M27.915 15.1641C27.8989 14.9298 27.6242 14.8975 27.301 15.0994C26.6628 15.5034 26.0327 15.9316 25.4106 16.392C25.0955 16.6263 24.8451 17.0141 24.8451 17.2484C24.8451 17.7169 24.8451 18.1774 24.8532 18.6379C24.8532 18.8803 25.1198 18.8722 25.4429 18.646C26.0892 18.1936 26.7436 17.7573 27.4061 17.3534C27.7454 17.1434 28.012 16.796 27.9958 16.5536C27.9716 16.0931 27.9473 15.6246 27.915 15.1641Z" fill="#27AAE1"/>
<path d="M35.3231 11.7629C35.2746 11.5286 34.9595 11.4317 34.6202 11.5529C33.9497 11.7871 33.2711 12.0537 32.6087 12.3365C32.2694 12.4819 32.019 12.797 32.0513 13.0313C32.1159 13.4917 32.1724 13.9522 32.2371 14.4127C32.2694 14.647 32.5764 14.7197 32.9318 14.5743C33.6266 14.2915 34.3294 14.0249 35.0323 13.7826C35.3877 13.6614 35.6462 13.3786 35.5977 13.1444C35.5008 12.6758 35.4119 12.2153 35.3231 11.7629Z" fill="#27AAE1"/>
<path d="M39.1038 10.7367C39.0392 10.5105 38.708 10.3813 38.3606 10.454C37.682 10.6075 37.0034 10.7852 36.3248 10.9872C35.9774 11.0922 35.7431 11.3669 35.7835 11.6011C35.8805 12.0535 35.9693 12.514 36.0663 12.9664C36.1147 13.2007 36.446 13.2976 36.8014 13.1926C37.5043 12.9826 38.2152 12.8048 38.918 12.6352C39.2816 12.5544 39.5239 12.304 39.4593 12.0778C39.3462 11.6335 39.225 11.1891 39.1038 10.7367Z" fill="#27AAE1"/>
<path d="M46.6575 10.1793C46.5686 9.96117 46.2131 9.75921 45.8738 9.74305C45.2033 9.71073 44.5247 9.70266 43.8541 9.72689C43.5067 9.73497 43.2967 9.93694 43.3694 10.1631C43.5229 10.5994 43.6764 11.0356 43.8299 11.48C43.9107 11.7062 44.2661 11.8677 44.6216 11.8516C45.3245 11.8193 46.0193 11.8112 46.714 11.8354C47.0695 11.8435 47.2796 11.69 47.1907 11.4638C47.013 11.0356 46.8352 10.6075 46.6575 10.1793Z" fill="#27AAE1"/>
<path d="M28.0603 17.7492C28.0441 17.5149 27.7533 17.4826 27.414 17.6846C26.7434 18.0885 26.089 18.5247 25.4427 18.9771C25.1115 19.2114 24.853 19.5992 24.853 19.8335C24.853 20.294 24.853 20.7625 24.861 21.223C24.861 21.4654 25.1357 21.4573 25.475 21.223C26.1456 20.7706 26.8323 20.3344 27.5271 19.9304C27.8826 19.7204 28.1572 19.3649 28.1492 19.1306C28.1169 18.6782 28.0926 18.2097 28.0603 17.7492Z" fill="#27AAE1"/>
<path d="M43.7411 12.6433C43.6603 12.4171 43.3048 12.2636 42.9494 12.2959C42.2384 12.3686 41.5275 12.4736 40.8166 12.6029C40.453 12.6675 40.2106 12.9099 40.2753 13.1441C40.3964 13.5885 40.5257 14.0409 40.6469 14.4852C40.7115 14.7114 41.067 14.8407 41.4467 14.768C42.1819 14.6387 42.9251 14.5256 43.6522 14.4367C44.0239 14.3963 44.2662 14.1863 44.1854 13.9601C44.04 13.5238 43.8865 13.0795 43.7411 12.6433Z" fill="#27AAE1"/>
<path d="M47.6513 12.5707C47.5624 12.3526 47.1989 12.1506 46.8434 12.1425C46.1486 12.1183 45.4458 12.1264 44.7429 12.1587C44.3874 12.1748 44.1531 12.3768 44.2339 12.603C44.3874 13.0392 44.5409 13.4755 44.6944 13.9198C44.7752 14.146 45.1388 14.2995 45.5104 14.2834C46.2375 14.243 46.9646 14.2268 47.6836 14.243C48.0472 14.251 48.2734 14.0895 48.1845 13.8633C48.0068 13.427 47.829 12.9989 47.6513 12.5707Z" fill="#27AAE1"/>
<path d="M28.2138 20.3343C28.1976 20.1 27.8987 20.0677 27.5433 20.2696C26.8485 20.6817 26.1618 21.1098 25.4832 21.5622C25.1358 21.7965 24.8692 22.1843 24.8692 22.4186C24.8692 22.879 24.8692 23.3476 24.8773 23.8081C24.8773 24.0424 25.16 24.0424 25.5155 23.8081C26.2103 23.3557 26.9293 22.9194 27.6483 22.5155C28.0199 22.3055 28.3107 21.95 28.2946 21.7157C28.2623 21.2633 28.238 20.7948 28.2138 20.3343Z" fill="#27AAE1"/>
<path d="M32.2129 18.3711C32.1806 18.1368 31.8574 18.0721 31.4858 18.2418C30.7587 18.5649 30.0397 18.9204 29.3288 19.284C28.9653 19.4698 28.6906 19.8252 28.6987 20.0595C28.731 20.52 28.7552 20.9886 28.7875 21.4491C28.8037 21.6834 29.1187 21.7157 29.4984 21.5299C30.2336 21.1582 30.9849 20.8108 31.7362 20.4796C32.124 20.31 32.4068 19.9868 32.3825 19.7525C32.326 19.292 32.2694 18.8315 32.2129 18.3711Z" fill="#27AAE1"/>
<path d="M36.3168 16.8443C36.2683 16.61 35.929 16.5211 35.5493 16.6423C34.8142 16.8928 34.0709 17.1594 33.3438 17.4502C32.9722 17.5956 32.6975 17.9187 32.7218 18.153C32.7864 18.6135 32.8429 19.074 32.9076 19.5345C32.9399 19.7688 33.2792 19.8334 33.667 19.6799C34.4264 19.381 35.1939 19.1063 35.9613 18.8559C36.3491 18.7266 36.6319 18.4358 36.5834 18.2015C36.4945 17.7572 36.4057 17.2967 36.3168 16.8443Z" fill="#27AAE1"/>
<path d="M40.4529 15.7376C40.3883 15.5114 40.0328 15.3822 39.6531 15.4711C38.9099 15.6407 38.1667 15.8346 37.4235 16.0527C37.0438 16.1658 36.7772 16.4486 36.8256 16.6828C36.9226 17.1352 37.0114 17.5957 37.1084 18.0481C37.1569 18.2824 37.5123 18.3713 37.9082 18.2582C38.6756 18.04 39.4512 17.8381 40.2187 17.6604C40.6145 17.5715 40.8811 17.313 40.8165 17.0868C40.6953 16.6344 40.5741 16.19 40.4529 15.7376Z" fill="#27AAE1"/>
<path d="M44.5812 15.0911C44.5004 14.8649 44.1369 14.7114 43.7572 14.7518C43.022 14.8407 42.2788 14.9457 41.5355 15.083C41.1558 15.1476 40.9054 15.3981 40.97 15.6324C41.0912 16.0767 41.2204 16.5291 41.3416 16.9734C41.4063 17.1996 41.7779 17.3208 42.1657 17.2481C42.9331 17.1027 43.7006 16.9896 44.4681 16.8926C44.8559 16.8442 45.1063 16.626 45.0336 16.4079C44.8801 15.9717 44.7347 15.5273 44.5812 15.0911Z" fill="#27AAE1"/>
<path d="M48.6366 14.9619C48.5478 14.7437 48.1762 14.5499 47.8045 14.5418C47.0855 14.5256 46.3504 14.5499 45.6233 14.5902C45.2517 14.6145 45.0093 14.8164 45.0901 15.0426C45.2436 15.4789 45.3971 15.9151 45.5506 16.3594C45.6314 16.5856 46.0111 16.7391 46.3908 16.7149C47.1502 16.6664 47.9015 16.6341 48.6447 16.6422C49.0244 16.6422 49.2587 16.4725 49.1617 16.2544C48.9921 15.8182 48.8144 15.39 48.6366 14.9619Z" fill="#27AAE1"/>
</svg>